<?xml version="1.0" encoding="utf-8"?>
<!-- Generator: Adobe Illustrator 21.1.0, SVG Export Plug-In . SVG Version: 6.00 Build 0)  -->
<svg version="1.1" id="Calque_1" xmlns="http://www.w3.org/2000/svg" xmlns:xlink="http://www.w3.org/1999/xlink" x="0px" y="0px"
	 viewBox="0 0 220.3 32" style="enable-background:new 0 0 220.3 32;" xml:space="preserve">
<style type="text/css">
	.st0{fill:#5D87D5;}
	.st1{fill:#4767A3;}
	.st2{fill:#28343A;}
	.st3{fill:#FFFFFF;}
	.st4{fill:#FFCD61;}
	.st5{fill:none;}
</style>
<path class="st0" d="M30.9,12v14.6L26.3,32l-9.6-5.4l-9.5,5l-4.4-5V12c0-6.6,6.2-12,14-12C24.5,0,30.9,5.4,30.9,12z"/>
<path class="st1" d="M16.7,0v26.6l-9.5,5l-4.4-5V12C2.7,5.4,9,0,16.7,0z"/>
<polygon class="st2" points="13.8,24.3 9.5,26.5 7.3,24.2 "/>
<g>
	<polygon class="st1" points="2.1,13.3 2.1,21.5 0,17.2 0,7.9 	"/>
</g>
<g>
	<polygon class="st0" points="31.5,13.3 31.5,21.5 33.6,17.2 33.6,7.9 	"/>
</g>
<g>
	<path class="st3" d="M46.6,27.7c-1.4,0-2.3-0.3-2.9-0.8c-0.5-0.6-0.9-1.5-0.9-2.8v-17c0.1-0.9,0.3-1.6,0.9-2.1
		c0.5-0.5,1.2-0.7,2-0.7h6.3l0.9,4.4h-4.6c-0.3,0-0.4,0.1-0.4,0.4v13.8c0,0.3,0.2,0.4,0.4,0.4h4.6l-0.9,4.4H46.6z"/>
	<path class="st3" d="M59.1,24.8l-0.4,2.9h-4.8l4.3-23.5h5.1l4.3,23.5h-4.8l-0.4-2.9H59.1z M59.6,21.1h2.2l-1.1-8.3L59.6,21.1z"/>
	<path class="st3" d="M78.3,4.2c0.9,0,1.6,0.3,2.2,0.8c0.5,0.5,0.7,1.2,0.7,2.1v11.2c0,0.4-0.1,0.9-0.2,1.2s-0.3,0.7-0.5,1
		c-0.3,0.3-0.6,0.5-1,0.7c-0.4,0.1-0.9,0.2-1.6,0.2h-4v6.3H69V4.2H78.3z M73.6,8.3v9.2h2.4c0.2,0,0.3-0.1,0.3-0.1
		c0.1-0.1,0.1-0.2,0.1-0.4V8.8c0-0.3-0.2-0.4-0.4-0.4H73.6z"/>
	<path class="st3" d="M92.5,4.2l1.2,4.4h-3.2v19.1h-4.9V8.6h-3.2l1.3-4.4H92.5z"/>
	<path class="st3" d="M97.7,24.8l-0.4,2.9h-4.8l4.3-23.5h5.1l4.3,23.5h-4.8l-0.4-2.9H97.7z M98.2,21.1h2.2l-1.1-8.3L98.2,21.1z"/>
	<path class="st3" d="M107.5,4.2h4.8v23.5h-4.8V4.2z"/>
	<path class="st3" d="M114.3,4.2h4.6l2.4,9.4V4.2h4.9v23.5h-4.9l-2.6-9.8v9.8h-4.4V4.2z"/>
	<path class="st3" d="M136,27.7c-1.4,0-2.3-0.3-2.9-0.8c-0.5-0.6-0.9-1.5-0.9-2.8v-17c0-1,0.3-1.6,0.8-2.1c0.5-0.5,1.2-0.7,2-0.7
		h6.3l0.9,4.4h-4.5c-0.3,0-0.4,0.1-0.4,0.4v13.8c0,0.3,0.2,0.4,0.4,0.4h4.6l-0.9,4.4H136z"/>
	<path class="st3" d="M156.1,24.4c0,0.4-0.1,0.9-0.2,1.2s-0.3,0.7-0.6,1c-0.3,0.3-0.6,0.5-1,0.7c-0.4,0.1-0.9,0.3-1.6,0.3h-5.5
		c-0.7,0-1.2-0.1-1.6-0.3c-0.4-0.1-0.8-0.4-1-0.7s-0.4-0.7-0.6-1c-0.1-0.4-0.2-0.8-0.2-1.2V7.2c0-1,0.3-1.7,0.8-2.2s1.4-0.8,2.5-0.8
		h5.9c1.1,0,2,0.3,2.5,0.8c0.5,0.6,0.8,1.3,0.8,2.2L156.1,24.4L156.1,24.4z M149,8.3c-0.3,0-0.4,0.1-0.4,0.4v14.3
		c0,0.1,0,0.3,0.1,0.4c0.1,0.1,0.2,0.1,0.3,0.1h1.8c0.2,0,0.3-0.1,0.3-0.1c0.1-0.1,0.1-0.2,0.1-0.4V8.8c0-0.3-0.2-0.4-0.4-0.4H149z"
		/>
	<path class="st3" d="M162.5,24.8l-0.4,2.9h-4.8l4.3-23.5h5.1l4.3,23.5h-4.8l-0.4-2.9H162.5z M163,21.1h2.2l-1.1-8.3L163,21.1z"/>
	<path class="st3" d="M172.6,27.7l-0.9-4.4h5.2c0.3,0,0.6-0.1,0.6-0.5v-4.3c0-0.3-0.1-0.5-0.2-0.6c-0.2-0.1-0.3-0.1-0.7-0.1h-2.5
		c-0.3,0-0.7,0-1-0.1c-0.3-0.1-0.6-0.1-0.9-0.4c-0.3-0.2-0.4-0.4-0.6-0.8s-0.2-0.8-0.2-1.4v-8c0-1,0.3-1.7,0.8-2.2s1.4-0.8,2.5-0.8
		h6.6l0.9,4.4h-5.4c-0.4,0-0.6,0.1-0.6,0.5v4.3c0,0.2,0.1,0.4,0.2,0.5c0.1,0.1,0.3,0.1,0.5,0.1h3c0.8,0,1.4,0.1,1.7,0.5
		c0.4,0.4,0.6,1,0.6,1.8v7.7c0,1.3-0.3,2.2-0.8,2.8c-0.5,0.5-1.5,0.8-2.8,0.8C178.7,27.7,172.6,27.7,172.6,27.7z"/>
	<path class="st3" d="M193.3,4.2l1.2,4.4h-3.2v19.1h-4.9V8.6h-3.2l1.3-4.4H193.3z"/>
	<path class="st3" d="M195.8,4.2h9.3l0.9,4.4h-5.3v5.6h4v4h-4v5.1h5l-0.9,4.4h-9.1L195.8,4.2L195.8,4.2z"/>
	<path class="st3" d="M219.9,18.2c0,0.5-0.2,1-0.5,1.4c-0.3,0.4-0.9,0.7-1.6,0.7l2.5,7.5h-4.9l-2.3-7.5h-0.6v7.5h-4.8V4.2h9
		c1.1,0,2,0.3,2.5,0.8c0.5,0.6,0.8,1.3,0.8,2.2L219.9,18.2L219.9,18.2z M212.3,8.3v8.1h2.3c0.3,0,0.4-0.1,0.4-0.5v-7
		c0-0.3-0.2-0.5-0.4-0.5C214.7,8.3,212.3,8.3,212.3,8.3z"/>
</g>
<polygon class="st4" points="19.3,11 16.7,9.6 14.1,11.1 14.6,7.9 12.4,5.7 15.4,5.2 16.7,2.4 18,5.2 20.9,5.7 18.8,7.9 "/>
<polygon class="st2" points="19.6,24.3 23.8,26.5 26.1,24.2 "/>
<polygon class="st4" points="26.4,19.4 23.8,17.9 21.2,19.4 21.7,16.3 19.6,14.1 22.5,13.6 23.8,10.7 25.1,13.6 28,14 25.9,16.3 "/>
<polygon class="st4" points="12.2,19.7 9.6,18.3 7,19.8 7.5,16.6 5.3,14.4 8.3,13.9 9.6,11.1 10.9,13.9 13.8,14.4 11.7,16.6 "/>
<line class="st5" x1="16.7" y1="0" x2="16.7" y2="26.6"/>
</svg>
