<?xml version="1.0" encoding="utf-8"?>
<!-- Generator: Adobe Illustrator 21.1.0, SVG Export Plug-In . SVG Version: 6.00 Build 0)  -->
<svg version="1.1" id="Calque_1" xmlns="http://www.w3.org/2000/svg" xmlns:xlink="http://www.w3.org/1999/xlink" x="0px" y="0px"
	 viewBox="0 0 206 32" style="enable-background:new 0 0 206 32;" xml:space="preserve">
<style type="text/css">
	.st0{fill:#FFFFFF;}
</style>
<g>
	<path class="st0" d="M5.4,27.2c-1.6,0-2.7-0.3-3.3-0.8c-0.6-0.5-0.9-1.4-0.9-2.5V8.3c0-0.9,0.3-1.5,0.9-2c0.6-0.5,1.4-0.7,2.3-0.7
		h7.2l0.9,4H7.3c-0.3,0-0.5,0.1-0.5,0.4v12.7c0,0.3,0.2,0.4,0.5,0.4h5.3l-1,4H5.4z"/>
	<path class="st0" d="M19.7,24.5l-0.5,2.7h-5.5l5-21.5h5.9l5,21.5H24l-0.5-2.7H19.7z M20.3,21.1h2.5l-1.3-7.6L20.3,21.1z"/>
	<path class="st0" d="M41.9,5.7c1.1,0,1.9,0.2,2.4,0.7s0.8,1.1,0.8,1.9v10.3c0,0.4-0.1,0.8-0.2,1.1c-0.1,0.3-0.3,0.6-0.6,0.9
		c-0.3,0.3-0.7,0.5-1.2,0.6c-0.5,0.1-1.1,0.2-1.9,0.2h-4.7v5.7H31V5.7H41.9z M36.5,9.5v8.5h2.7c0.2,0,0.4,0,0.4-0.1
		c0.1-0.1,0.1-0.2,0.1-0.3V9.9c0-0.3-0.2-0.4-0.5-0.4H36.5z"/>
	<path class="st0" d="M58.2,5.7l1.4,4h-3.7v17.5h-5.6V9.7h-3.7l1.4-4H58.2z"/>
	<path class="st0" d="M64.1,24.5l-0.5,2.7h-5.5l5-21.5h5.9l5,21.5h-5.5l-0.5-2.7H64.1z M64.7,21.1h2.5L66,13.5L64.7,21.1z"/>
	<path class="st0" d="M75.4,5.7h5.5v21.5h-5.5V5.7z"/>
	<path class="st0" d="M83.2,5.7h5.2l2.8,8.6V5.7h5.7v21.5h-5.7l-3-9v9h-5.1V5.7z"/>
	<path class="st0" d="M108.2,27.2c-1.6,0-2.7-0.3-3.3-0.8c-0.6-0.5-0.9-1.4-0.9-2.5V8.3c0-0.9,0.3-1.5,0.9-2
		c0.6-0.5,1.4-0.7,2.3-0.7h7.2l0.9,4h-5.3c-0.3,0-0.5,0.1-0.5,0.4v12.7c0,0.3,0.2,0.4,0.5,0.4h5.3l-1,4H108.2z"/>
	<path class="st0" d="M131.4,24.2c0,0.4-0.1,0.8-0.2,1.2c-0.1,0.4-0.3,0.7-0.6,1c-0.3,0.3-0.7,0.5-1.2,0.7s-1.1,0.3-1.9,0.3h-6.4
		c-0.8,0-1.4-0.1-1.9-0.3c-0.5-0.2-0.9-0.4-1.2-0.7c-0.3-0.3-0.5-0.6-0.6-1c-0.1-0.4-0.2-0.8-0.2-1.2V8.5c0-0.9,0.3-1.5,0.9-2
		c0.6-0.5,1.5-0.8,2.8-0.8h6.8c1.3,0,2.2,0.3,2.8,0.8c0.6,0.5,0.9,1.2,0.9,2V24.2z M123.2,9.5c-0.3,0-0.5,0.1-0.5,0.4V23
		c0,0.2,0,0.3,0.1,0.3c0.1,0.1,0.2,0.1,0.4,0.1h2.1c0.2,0,0.4,0,0.4-0.1s0.1-0.2,0.1-0.3V9.9c0-0.3-0.2-0.4-0.5-0.4H123.2z"/>
	<path class="st0" d="M138.7,24.5l-0.5,2.7h-5.5l5-21.5h5.9l5,21.5H143l-0.5-2.7H138.7z M139.3,21.1h2.5l-1.3-7.6L139.3,21.1z"/>
	<path class="st0" d="M150.4,27.2l-1-4h5.9c0.4,0,0.6-0.1,0.6-0.4v-3.9c0-0.3-0.1-0.5-0.2-0.5c-0.2-0.1-0.4-0.1-0.8-0.1h-2.8
		c-0.4,0-0.8,0-1.2-0.1c-0.4,0-0.7-0.2-1-0.3c-0.3-0.2-0.5-0.4-0.7-0.7c-0.2-0.3-0.2-0.7-0.2-1.3V8.5c0-0.9,0.3-1.5,0.9-2
		c0.6-0.5,1.5-0.8,2.8-0.8h7.6l0.9,4h-6.2c-0.5,0-0.7,0.2-0.7,0.5v3.9c0,0.2,0.1,0.4,0.2,0.4c0.1,0.1,0.3,0.1,0.6,0.1h3.5
		c0.9,0,1.6,0.2,2,0.5c0.5,0.3,0.7,0.9,0.7,1.7v7.1c0,1.2-0.3,2-0.9,2.5c-0.6,0.5-1.7,0.7-3.3,0.7H150.4z"/>
	<path class="st0" d="M174.2,5.7l1.4,4h-3.7v17.5h-5.6V9.7h-3.7l1.4-4H174.2z"/>
	<path class="st0" d="M177.1,5.7h10.7l0.9,4h-6v5.1h4.6v3.7h-4.6v4.7h5.8l-0.9,4h-10.5V5.7z"/>
	<path class="st0" d="M204.8,18.5c0,0.5-0.2,0.9-0.6,1.3c-0.4,0.4-1,0.6-1.8,0.6l2.9,6.9h-5.7l-2.7-6.9h-0.7v6.9h-5.5V5.7h10.4
		c1.3,0,2.2,0.3,2.8,0.8c0.6,0.5,0.9,1.2,0.9,2V18.5z M196.1,9.5v7.4h2.7c0.4,0,0.5-0.1,0.5-0.4V9.9c0-0.3-0.2-0.4-0.5-0.4H196.1z"
		/>
</g>
</svg>
