<?xml version="1.0" encoding="utf-8"?>
<!-- Generator: Adobe Illustrator 21.1.0, SVG Export Plug-In . SVG Version: 6.00 Build 0)  -->
<svg version="1.1" id="Calque_1" xmlns="http://www.w3.org/2000/svg" xmlns:xlink="http://www.w3.org/1999/xlink" x="0px" y="0px"
	 viewBox="0 0 206 32" style="enable-background:new 0 0 206 32;" xml:space="preserve">
<style type="text/css">
	.st0{fill:#FFFFFF;}
</style>
<g>
	<path class="st0" d="M4.3,32c-1.6,0-2.7-0.4-3.4-1.1c-0.6-0.8-1-2-1-3.8V3.9C0,2.7,0.3,1.7,0.9,1c0.6-0.7,1.4-1,2.3-1h7.3l1,6H6.2
		C5.9,6,5.7,6.2,5.7,6.6v18.8c0,0.4,0.2,0.6,0.5,0.6h5.3l-1,6H4.3z"/>
	<path class="st0" d="M18.8,28l-0.5,4h-5.6l5-32h5.9l5,32h-5.6l-0.5-4H18.8z M19.4,23h2.6l-1.3-11.3L19.4,23z"/>
	<path class="st0" d="M41.1,0c1.1,0,1.9,0.4,2.5,1.1s0.8,1.6,0.8,2.8v15.3c0,0.6-0.1,1.2-0.2,1.7c-0.1,0.5-0.3,1-0.6,1.3
		c-0.3,0.4-0.7,0.7-1.2,0.9c-0.5,0.2-1.1,0.3-1.9,0.3h-4.7V32h-5.5V0H41.1z M35.7,5.6v12.6h2.8c0.2,0,0.4-0.1,0.4-0.2
		c0.1-0.1,0.1-0.3,0.1-0.5V6.2c0-0.4-0.2-0.6-0.5-0.6H35.7z"/>
	<path class="st0" d="M57.6,0L59,6h-3.7v26h-5.7V6h-3.7l1.5-6H57.6z"/>
	<path class="st0" d="M63.6,28l-0.5,4h-5.6l5-32h5.9l5,32h-5.6l-0.5-4H63.6z M64.2,23h2.6l-1.3-11.3L64.2,23z"/>
	<path class="st0" d="M75,0h5.6v32H75V0z"/>
	<path class="st0" d="M82.9,0h5.3L91,12.8V0h5.7v32H91l-3-13.4V32h-5.1V0z"/>
	<path class="st0" d="M108.1,32c-1.6,0-2.7-0.4-3.4-1.1c-0.6-0.8-1-2-1-3.8V3.9c0-1.3,0.3-2.2,0.9-2.9c0.6-0.7,1.4-1,2.3-1h7.3l1,6
		H110c-0.3,0-0.5,0.2-0.5,0.6v18.8c0,0.4,0.2,0.6,0.5,0.6h5.3l-1,6H108.1z"/>
	<path class="st0" d="M131.5,27.5c0,0.6-0.1,1.2-0.2,1.7c-0.1,0.5-0.3,1-0.7,1.4c-0.3,0.4-0.7,0.7-1.2,1c-0.5,0.2-1.1,0.4-1.9,0.4
		h-6.4c-0.8,0-1.4-0.1-1.9-0.4c-0.5-0.2-0.9-0.6-1.2-1c-0.3-0.4-0.5-0.9-0.7-1.4c-0.1-0.5-0.2-1.1-0.2-1.7V4.1c0-1.3,0.3-2.3,0.9-3
		c0.6-0.7,1.6-1.1,2.9-1.1h6.9c1.3,0,2.3,0.4,2.9,1.1c0.6,0.8,0.9,1.8,0.9,3V27.5z M123.2,5.6c-0.3,0-0.5,0.2-0.5,0.6v19.5
		c0,0.2,0,0.4,0.1,0.5c0.1,0.1,0.2,0.2,0.4,0.2h2.1c0.2,0,0.4-0.1,0.4-0.2c0.1-0.1,0.1-0.3,0.1-0.5V6.2c0-0.4-0.2-0.6-0.5-0.6H123.2
		z"/>
	<path class="st0" d="M138.9,28l-0.5,4h-5.6l5-32h5.9l5,32h-5.6l-0.5-4H138.9z M139.5,23h2.6l-1.3-11.3L139.5,23z"/>
	<path class="st0" d="M150.7,32l-1-6h6c0.4,0,0.7-0.2,0.7-0.7v-5.8c0-0.4-0.1-0.7-0.2-0.8c-0.2-0.1-0.4-0.1-0.8-0.1h-2.9
		c-0.4,0-0.8,0-1.2-0.1c-0.4-0.1-0.7-0.2-1-0.5c-0.3-0.3-0.5-0.6-0.7-1.1c-0.2-0.5-0.2-1.1-0.2-1.9V4.1c0-1.3,0.3-2.3,0.9-3
		c0.6-0.7,1.6-1.1,2.9-1.1h7.7l1,6h-6.3c-0.5,0-0.7,0.2-0.7,0.7v5.8c0,0.3,0.1,0.5,0.2,0.7c0.1,0.1,0.4,0.2,0.6,0.2h3.5
		c0.9,0,1.6,0.2,2,0.7c0.5,0.5,0.7,1.3,0.7,2.5v10.5c0,1.8-0.3,3-0.9,3.8c-0.6,0.7-1.7,1.1-3.3,1.1H150.7z"/>
	<path class="st0" d="M174.7,0l1.4,6h-3.7v26h-5.7V6H163l1.5-6H174.7z"/>
	<path class="st0" d="M177.6,0h10.8l1,6h-6.1v7.6h4.6v5.5h-4.6v7h5.8l-1,6h-10.6V0z"/>
	<path class="st0" d="M205.6,19c0,0.7-0.2,1.4-0.6,1.9c-0.4,0.6-1,0.9-1.9,0.9L206,32h-5.7l-2.7-10.2h-0.7V32h-5.6V0h10.5
		c1.3,0,2.3,0.4,2.9,1.1c0.6,0.8,0.9,1.8,0.9,3V19z M196.8,5.6v11h2.7c0.4,0,0.5-0.2,0.5-0.7V6.3c0-0.4-0.2-0.7-0.5-0.7H196.8z"/>
</g>
</svg>
