<svg xmlns="http://www.w3.org/2000/svg" width="33.6" height="33.6" viewBox="0 0 8.89 8.89"><path d="M108.736 147.594v3.863l-1.217 1.428-2.54-1.428-2.514 1.323-1.164-1.323v-3.863c0-1.747 1.64-3.175 3.704-3.175 2.037 0 3.73 1.428 3.73 3.175" class="st0" style="fill:#5d87d5;stroke-width:.264583" transform="translate(-100.542 -144.198)"/><path d="M104.979 144.419v7.038l-2.514 1.323-1.164-1.323v-3.863c-.027-1.747 1.64-3.175 3.678-3.175" class="st1" style="fill:#4767a3;stroke-width:.264583" transform="translate(-100.542 -144.198)"/><path d="m7.3 24.2 6.5.1-4.3 2.2z" class="st2" style="fill:#28343a" transform="translate(.018 .22)scale(.26458)"/><path d="m0 7.9 2.1 5.4v8.2L0 17.2z" class="st1" style="fill:#4767a3" transform="translate(.018 .22)scale(.26458)"/><path d="m33.6 7.9-2.1 5.4v8.2l2.1-4.3z" class="st0" style="fill:#5d87d5" transform="translate(.018 .22)scale(.26458)"/><path d="m15.4 5.2 1.3-2.8L18 5.2l2.9.5-2.1 2.2.5 3.1-2.6-1.4-2.6 1.5.5-3.2-2.2-2.2z" class="st4" style="fill:#ffcd61" transform="translate(.018 .22)scale(.26458)"/><path d="m26.1 24.2-6.5.1 4.2 2.2z" class="st2" style="fill:#28343a" transform="translate(.018 .22)scale(.26458)"/><path d="m22.5 13.6 1.3-2.9 1.3 2.9 2.9.4-2.1 2.3.5 3.1-2.6-1.5-2.6 1.5.5-3.1-2.1-2.2zm-14.2.3 1.3-2.8 1.3 2.8 2.9.5-2.1 2.2.5 3.1-2.6-1.4L7 19.8l.5-3.2-2.2-2.2z" class="st4" style="fill:#ffcd61" transform="translate(.018 .22)scale(.26458)"/><path d="M104.979 144.419v7.038" class="st5" style="fill:none;stroke-width:.264583" transform="translate(-100.542 -144.198)"/></svg>