<svg xmlns="http://www.w3.org/2000/svg" viewBox="0 0 24 24"><g fill="none" stroke="currentColor" stroke-linecap="round" stroke-linejoin="round" stroke-width="1.5"><path d="M6.827 6.175A2.31 2.31 0 0 1 5.186 7.23q-.57.08-1.134.175C2.999 7.58 2.25 8.507 2.25 9.574V18a2.25 2.25 0 0 0 2.25 2.25h15A2.25 2.25 0 0 0 21.75 18V9.574c0-1.067-.75-1.994-1.802-2.169a48 48 0 0 0-1.134-.175a2.31 2.31 0 0 1-1.64-1.055l-.822-1.316a2.19 2.19 0 0 0-1.736-1.039a49 49 0 0 0-5.232 0a2.19 2.19 0 0 0-1.736 1.039z"/><path d="M16.5 12.75a4.5 4.5 0 1 1-9 0a4.5 4.5 0 0 1 9 0m2.25-2.25h.008v.008h-.008z"/></g></svg>