<svg xmlns="http://www.w3.org/2000/svg" viewBox="0 0 24 24"><path fill="none" stroke="currentColor" stroke-linecap="round" stroke-linejoin="round" stroke-width="1.5" d="M6.633 10.25c.806 0 1.533-.446 2.031-1.08a9 9 0 0 1 2.861-2.4c.723-.384 1.35-.956 1.653-1.715a4.5 4.5 0 0 0 .322-1.672V2.75a.75.75 0 0 1 .75-.75a2.25 2.25 0 0 1 2.25 2.25c0 1.152-.26 2.243-.723 3.218c-.266.558.107 1.282.725 1.282m0 0h3.126c1.026 0 1.945.694 2.054 1.715q.068.633.068 1.285a11.95 11.95 0 0 1-2.649 7.521c-.388.482-.987.729-1.605.729H13.48a4.5 4.5 0 0 1-1.423-.23l-3.114-1.04a4.5 4.5 0 0 0-1.423-.23H5.904m10.598-9.75H14.25M5.904 18.5q.125.307.27.602c.197.4-.078.898-.523.898h-.908c-.889 0-1.713-.518-1.972-1.368a12 12 0 0 1-.521-3.507c0-1.553.295-3.036.831-4.398C3.387 9.953 4.167 9.5 5 9.5h1.053c.472 0 .745.556.5.96a8.96 8.96 0 0 0-1.302 4.665a9 9 0 0 0 .654 3.375"/></svg>