<svg xmlns="http://www.w3.org/2000/svg" viewBox="0 0 24 24"><path fill="none" stroke="currentColor" stroke-linecap="round" stroke-linejoin="round" stroke-width="1.5" d="M14.25 6.087c0-.355.186-.676.401-.959c.221-.29.349-.634.349-1.003c0-1.036-1.007-1.875-2.25-1.875s-2.25.84-2.25 1.875c0 .369.128.713.349 1.003c.215.283.401.604.401.959v0a.64.64 0 0 1-.657.643a48 48 0 0 1-4.163-.3q.28 2.42.315 4.907a.656.656 0 0 1-.658.663v0c-.355 0-.676-.186-.959-.401a1.65 1.65 0 0 0-1.003-.349c-1.036 0-1.875 1.007-1.875 2.25s.84 2.25 1.875 2.25c.369 0 .713-.128 1.003-.349c.283-.215.604-.401.959-.401v0c.31 0 .555.26.532.57a48 48 0 0 1-.642 5.056q2.278.286 4.616.354a.64.64 0 0 0 .657-.643v0c0-.355-.186-.676-.401-.959a1.65 1.65 0 0 1-.349-1.003c0-1.035 1.008-1.875 2.25-1.875c1.243 0 2.25.84 2.25 1.875c0 .369-.128.713-.349 1.003c-.215.283-.4.604-.4.959v0c0 .333.277.599.61.58a48 48 0 0 0 5.427-.63a48 48 0 0 0 .582-4.717a.53.53 0 0 0-.533-.57v0c-.355 0-.676.186-.959.401c-.29.221-.634.349-1.003.349c-1.035 0-1.875-1.007-1.875-2.25s.84-2.25 1.875-2.25c.37 0 .713.128 1.003.349c.283.215.604.401.96.401v0a.656.656 0 0 0 .658-.663a48 48 0 0 0-.37-5.36q-2.83.515-5.766.689a.58.58 0 0 1-.61-.58"/></svg>