<svg xmlns="http://www.w3.org/2000/svg" width="24" height="24" viewBox="0 0 24 24" fill="currentColor">
  <path d="M12 1a1 1 0 0 1 .823.443l.067.116l2.852 5.781l6.38.925c.741.108 1.08.94.703 1.526l-.07.095l-.078.086l-4.624 4.499l1.09 6.355a1 1 0 0 1-1.249 1.135l-.101-.035l-.101-.046l-5.693-3l-5.706 3q-.158.082-.32.106l-.106.01a1.003 1.003 0 0 1-1.038-1.06l.013-.11l1.09-6.355l-4.623-4.5a1 1 0 0 1 .328-1.647l.113-.036l.114-.023l6.379-.925l2.853-5.78A.97.97 0 0 1 12 1m0 3.274V16.75a1 1 0 0 1 .239.029l.115.036l.112.05l4.363 2.299l-.836-4.873a1 1 0 0 1 .136-.696l.07-.099l.082-.09l3.546-3.453l-4.891-.708a1 1 0 0 1-.62-.344l-.073-.097l-.06-.106z"/>
</svg>