<svg version="1" xmlns="http://www.w3.org/2000/svg" width="682.667" height="682.667" viewBox="0 0 512.000000 512.000000"><path d="M234.5 10.6c-48.7 5.3-85.5 19.1-120 44.9-37.8 28.4-62.3 66.8-69.5 109-1.9 11.3-2 16.1-2 131.5v119.7l33.1 37.7c18.3 20.7 33.6 37.6 34.2 37.6.6 0 33.1-16.9 72.2-37.5 39.2-20.6 71.7-37.5 72.3-37.5.7 0 33.6 18.2 73.3 40.6 39.6 22.3 72.4 40.4 72.9 40.2.4-.2 16.3-18.7 35.4-41.1l34.6-40.9V305.7c0-62.3-.4-115-1-122.7-3-41.4-20.2-77.3-52-109.1-32.4-32.3-78-54.1-128.5-61.5-9.8-1.4-47.1-2.6-55-1.8zM264.9 70l9.2 19.6 16.2 2.8c8.9 1.5 18.8 3.3 22.1 3.8l5.8 1.1-11.9 12.1c-6.5 6.6-13.7 14.1-16.1 16.6l-4.2 4.6 3.8 23.2c2.1 12.8 3.7 23.2 3.5 23.2-.2 0-9-4.7-19.7-10.5l-19.3-10.6-18.9 11c-17.4 10.2-18.9 10.9-19.1 8.8-.2-1.2 1.2-11.9 3.1-23.7l3.3-21.5-16.4-16.6-16.5-16.6 5.8-1.1c3.3-.5 13.4-2.2 22.5-3.8l16.7-2.8 5.7-12.4c12.8-27.8 13.7-29.5 14.5-28.1.4.8 4.9 10.2 9.9 20.9zM373 197.1l9.2 20.5 21.4 2.9c11.8 1.6 21.4 3.1 21.4 3.4 0 .3-4.6 5.5-10.1 11.6-5.5 6-12.5 13.7-15.4 17.1l-5.4 6 3.8 23c2.2 12.6 3.8 23 3.7 23 0 .1-8.6-4.8-19.1-10.8-10.4-6.1-19.4-11-20-11.1-.5 0-9.5 5-20 11.1-10.4 6-19.1 10.9-19.2 10.8-.1-.1 1.5-10.5 3.7-23.1l3.8-23-6.6-7c-3.7-3.9-11-11.4-16.2-16.8-5.2-5.3-9-9.7-8.5-9.7 3.9 0 42.2-7.4 43.1-8.3.7-.7 5.4-10.6 10.5-22 5.4-12.1 9.6-20.2 10-19.5.3.7 4.8 10.6 9.9 21.9zm-217 4.1c5.2 11.2 9.8 20.5 10.2 20.8.4.3 10.1 2.1 21.5 3.9 11.4 1.9 21 3.5 21.2 3.7.2.2-6.7 7.8-15.3 16.8l-15.7 16.5 3.6 22.6c2.1 12.4 3.5 22.8 3.3 23.1-.3.2-9-4.3-19.6-10l-19-10.3-19.6 11.3c-10.8 6.2-19.6 11.1-19.6 10.9 0-.3 1.6-10.2 3.5-22.1 1.9-11.8 3.5-22.5 3.5-23.7 0-1.5-5.2-7.4-16.2-18.4-8.9-8.9-16-16.4-15.8-16.6.3-.2 10.2-1.8 22-3.7 11.8-1.8 22-3.8 22.7-4.4.6-.6 4.4-8.3 8.3-17.1 7.5-16.6 10.8-23.5 11.3-23.5.2 0 4.6 9.1 9.7 20.2zM0 201.4v71l15.8 32.2 15.7 32.1.3-62.2.2-62.3-16-40.8L.1 130.5 0 201.4zM510.2 134.5c-.7 1.6-7.8 19.7-15.8 40.1L480 211.7l.2 62.1.3 62.1 15.8-32.2 15.7-32.2-.2-70c-.3-59-.5-69.5-1.6-67z"/></svg>